 http://i.imgur.com/QVs7iti.png
 
http://img37.imageshack.us/img37/7996/ogtw21.gif 
http://i.imgur.com/7GWHJxE.png 
http://i.imgur.com/51Uakvy.png 
http://i.imgur.com/hFrQZ5K.png


General

Complete name : Disco Bazar 
Format/Info : Audio Video Interleave
File size : 695 MiB
Duration : 1h 45mn
Overall bit rate : 925 Kbps


ID : 0
Format : MPEG-4 Visual
Format profile : Advanced Simple@L5
Format settings, BVOP : 2
Format settings, QPel : No
Format settings, GMC : No warppoints
Format settings, Matrix : Default (H.263)
Codec ID : XVID
Codec ID/Hint : XviD
Duration : 1h 45mn
Bit rate : 792 Kbps
Width : 384 pixels
Height : 286 pixels
Display aspect ratio : 4:3
Frame rate : 20.000 fps
Color space : YUV
Chroma subsampling : 4:2:0
Bit depth : 8 bits
Scan type : Progressive
Compression mode : Lossy
Bits/(Pixel*Frame) : 0.361
Stream size : 595 MiB (86%)
Writing library : XviD 1.2.1 (UTC 2008-12-04)


ID : 1
Format : MPEG Audio
Format version : Version 1
Format profile : Layer 3
Mode : Joint stereo
Codec ID : 55
Codec ID/Hint : MP3
Duration : 1h 45mn
Bit rate mode : Constant
Bit rate : 128 Kbps
Channel(s) : 2 channels
Sampling rate : 44.1 KHz
Compression mode : Lossy
Stream size : 96.2 MiB (14%)
Alignment : Aligned on interleaves
Interleave, duration : 200 ms (4.00 video frames)
Interleave, preload duration : 208 ms
Title : Disco Bazar - Punjabi Stage
Writing library : LAME3.99r
Encoding settings : -m j -V 4 -q 2 -lowpass 17 -b 128


*** All Credits Goes To : -=Desi_King=-  ***